<svg width="720" height="750" xmlns="http://www.w3.org/2000/svg" xmlns:xlink="http://www.w3.org/1999/xlink">
 <title>blue buggy</title>
 <defs>
  <symbol id="svg_3" height="551.430664" width="483.222656">
   <g>
    <title>Layer 1</title>
    <path fill-rule="evenodd" clip-rule="evenodd" fill="#ffffff" d="m161.988281,98.124023c24.962891,-2.30468 44.357422,-23.811035 44.357422,-48.965824c0,-27.07519 -22.083008,-49.158199 -49.158203,-49.158199s-49.157227,22.08301 -49.157227,49.158199c0,8.25684 2.303703,16.70557 6.144524,23.810551l17.515633,246.466797l180.396484,0.048828l73.991211,173.365234l97.144531,-38.097656l-15.042969,-35.820313l-54.366211,19.625l-71.59082,-165.280273l-167.729492,1.126953l-2.302734,-31.212891l121.422852,0.04834l0,-46.183105l-126.054688,-0.049316l-5.570313,-98.882324z" id="svg_2"/>
    <path fill-rule="evenodd" clip-rule="evenodd" fill="#ffffff" d="m343.419922,451.59082c-30.447266,60.1875 -94.174805,99.839844 -162.150391,99.839844c-99.839844,0 -181.269531,-81.429688 -181.269531,-181.269531c0,-70.100586 42.485352,-135.243652 105.881844,-164.121094l4.102539,53.537598c-37.497086,23.628418 -60.612312,66.262207 -60.612312,110.950684c0,72.426758 59.071289,131.49707 131.49707,131.49707c66.261719,0 122.764648,-50.851563 130.469727,-116.086914l32.081055,65.652344z" id="svg_1"/>
   </g>
  </symbol>
 </defs>
 <g>
  <title>Layer 1</title>
  <g id="layer1">
   <path fill="#ffffff" fill-rule="nonzero" id="path4920" d="m579.02063,680.031738c41.807678,0 75.728271,-33.984741 75.728271,-75.792419l0,-482.326965c0,-41.807663 -33.920593,-75.728294 -75.728271,-75.728294l-482.327003,0c-41.807636,0 -75.728277,33.920631 -75.728277,75.728294l0,482.326965c0,41.807678 33.920652,75.792419 75.728277,75.792419l482.327003,0z"/>
   <path fill="#00adef" fill-rule="nonzero" id="path4922" d="m96.693642,59.008492c-34.69009,0 -62.903851,28.21376 -62.903851,62.903862l0,482.326965c0,34.690125 28.21376,62.90387 62.903851,62.90387l482.326988,0c34.690125,0 62.90387,-28.213745 62.90387,-62.90387l0,-482.326965c0,-34.690102 -28.213745,-62.903862 -62.90387,-62.903862l-482.326988,0z"/>
  </g>
  <use x="187.267075" y="180.285539" transform="matrix(0.878755, 0, 0, 0.878755, -33.1805, -40.0454)" xlink:href="#svg_3" id="svg_4"/>
 </g>
</svg>